<svg width="2160" height="2160" viewBox="0 0 2160 2160" fill="none" xmlns="http://www.w3.org/2000/svg">
<path d="M936.11 1628.2V1576.74C936.11 1576.74 1040.26 1585.32 1141.95 1571.84C1243.64 1558.36 1352.69 1495.87 1352.69 1495.87L1379.65 1537.53C1379.65 1537.53 1254.67 1615.95 1141.95 1625.75C1029.23 1635.55 936.11 1628.2 936.11 1628.2Z" fill="url(#paint0_linear_13_233)"/>
<path d="M840.542 1228.77V1488.52L796.434 1401.53V1228.77C796.434 1228.77 800.109 1209.17 818.488 1209.17C836.866 1209.17 840.542 1228.77 840.542 1228.77Z" fill="url(#paint1_linear_13_233)"/>
<path d="M656.757 1226.32V1271.66L678.811 1274.11V1233.67L806.236 1101.35L816.037 1098.9L791.533 1069.49L789.082 1081.13L786.632 1089.1L656.757 1226.32Z" fill="url(#paint2_linear_13_233)"/>
<path d="M1040.26 613.706C1034.51 613.59 1025.55 613.706 1025.55 613.706L1028 635.76C1028 635.76 1104.58 638.49 1151.75 650.463C1208.26 664.807 1288.98 709.274 1288.98 709.274C1288.98 709.274 1287.98 701.68 1286.53 697.022C1284.81 691.502 1283.61 688.352 1280.4 683.544C1278.7 680.997 1277.78 679.46 1275.5 677.418C1272.62 674.847 1270.3 674.384 1266.92 672.517C1253.44 665.059 1245.52 661.509 1231.39 655.364C1214.03 647.814 1204.06 644.051 1186.06 638.211C1172.8 633.911 1165.3 631.655 1151.75 628.409C1139.89 625.566 1133.14 624.351 1121.12 622.283C1111.58 620.642 1106.21 619.877 1096.62 618.607C1088.5 617.531 1083.94 616.968 1075.79 616.156L1075.14 616.092C1061.7 614.754 1053.94 613.981 1040.26 613.706Z" fill="url(#paint3_linear_13_233)"/>
<path d="M830.74 1005.78V841.599C830.74 841.599 830.74 817.095 806.235 817.095C781.731 817.095 781.731 841.599 781.731 841.599V1014.36L635.928 1167.51L659.207 1178.54L798.884 1031.51L830.74 1005.78Z" fill="url(#paint4_linear_13_233)"/>
<circle cx="819.713" cy="1070.72" r="28.1804" fill="url(#paint5_linear_13_233)"/>
<circle cx="664.108" cy="1299.84" r="29.4056" fill="url(#paint6_linear_13_233)"/>
<circle cx="1001.05" cy="627.183" r="28.1804" fill="url(#paint7_linear_13_233)"/>
<circle cx="660.433" cy="1011.91" r="40.4327" fill="url(#paint8_linear_13_233)"/>
<circle cx="1344.11" cy="732.554" r="28.1804" fill="url(#paint9_linear_13_233)"/>
<circle cx="1339.21" cy="1443.19" r="28.1804" fill="url(#paint10_linear_13_233)"/>
<ellipse cx="731.496" cy="1488.52" rx="109.046" ry="107.821" fill="url(#paint11_linear_13_233)"/>
<path d="M850.344 670.067H803.785C767.13 719.689 710.975 711.753 690.584 672.517C672.579 637.872 685.092 595.772 732.721 581.85V535.291H634.703V866.104C636.377 880.396 646.955 890.609 659.207 890.609C671.46 890.609 680.48 882.033 683.712 868.555V733.779C708.63 750.841 723.91 753.186 744.974 753.383C795.611 753.058 824.762 724.297 850.344 670.067Z" fill="url(#paint12_linear_13_233)"/>
<circle cx="747.424" cy="640.661" r="36.757" fill="url(#paint13_linear_13_233)"/>
<rect x="764.578" y="535.291" width="161.731" height="46.5589" fill="url(#paint14_linear_13_233)"/>
<path d="M1400.47 866.104L1520.55 759.509C1520.55 759.509 1456.83 681.093 1383.32 633.309C1309.81 585.525 1265.7 568.372 1181.16 547.543C1096.62 526.714 963.066 532.84 963.066 532.84V579.399C963.066 579.399 1101.52 569.597 1237.52 617.382C1373.52 665.166 1461.74 775.437 1461.74 775.437L1383.32 841.599C1383.32 841.599 1280.4 717.851 1159.1 687.22C1037.8 656.589 872.398 670.067 872.398 670.067L900.579 723.977C900.579 723.977 1080.89 704.388 1181.16 749.707C1238.13 775.458 1302.78 832.407 1312.26 841.599C1321.73 850.791 1326.97 856.059 1335.54 866.104C1365.7 901.491 1375.88 925.92 1394.1 969.654L1394.35 970.249C1412.73 1014.36 1413.95 1089.1 1413.95 1089.1H1467.86C1467.86 1089.1 1466.64 1030.29 1448.26 970.249C1429.88 910.213 1400.47 866.104 1400.47 866.104Z" fill="url(#paint15_linear_13_233)"/>
<path d="M1467.86 846.501L1448.26 861.203C1448.26 861.203 1534.29 977.601 1510.75 1151.58C1487.2 1325.57 1366.17 1412.56 1366.17 1412.56L1384.55 1430.94C1384.55 1430.94 1515.65 1320.67 1537.7 1151.58C1559.75 982.502 1467.86 846.501 1467.86 846.501Z" fill="url(#paint16_linear_13_233)"/>
<path d="M1499.72 828.122L1541.38 797.491C1541.38 797.491 1640.62 926.141 1621.02 1151.58C1601.41 1377.03 1420.08 1510.58 1420.08 1510.58L1391.9 1467.69C1391.9 1467.69 1545.05 1359.87 1568.33 1151.58C1591.61 943.294 1499.72 828.122 1499.72 828.122Z" fill="url(#paint17_linear_13_233)"/>
<path d="M1465.41 1123.4H1413.95C1413.95 1123.4 1402.41 1202.71 1380.87 1248.38C1357.18 1298.61 1301.23 1357.42 1301.23 1357.42L1337.99 1397.86C1337.99 1397.86 1389.06 1353.75 1426.2 1275.33C1463.35 1196.92 1465.41 1123.4 1465.41 1123.4Z" fill="url(#paint18_linear_13_233)"/>
<path d="M1091.72 1444.41C1019.43 1450.54 926.308 1446.86 926.308 1446.86L972.867 1500.78C1034.82 1498.34 1077.01 1499.55 1129.7 1490.97C1182.38 1482.4 1259.57 1449.32 1259.57 1449.32V1388.05C1259.57 1388.05 1164 1438.29 1091.72 1444.41Z" fill="url(#paint19_linear_13_233)"/>
<circle cx="922.633" cy="1497.1" r="50.2346" fill="url(#paint20_linear_13_233)"/>
<defs>
<linearGradient id="paint0_linear_13_233" x1="1157.88" y1="1495.87" x2="1157.88" y2="1630.85" gradientUnits="userSpaceOnUse">
<stop stop-color="#34E89E"/>
<stop offset="1" stop-color="#0F3443"/>
</linearGradient>
<linearGradient id="paint1_linear_13_233" x1="818.488" y1="1209.17" x2="818.488" y2="1488.52" gradientUnits="userSpaceOnUse">
<stop stop-color="#34E89E"/>
<stop offset="1" stop-color="#0F3443"/>
</linearGradient>
<linearGradient id="paint2_linear_13_233" x1="736.397" y1="1069.49" x2="736.397" y2="1274.11" gradientUnits="userSpaceOnUse">
<stop stop-color="#34E89E"/>
<stop offset="1" stop-color="#0F3443"/>
</linearGradient>
<linearGradient id="paint3_linear_13_233" x1="1157.27" y1="613.655" x2="1157.27" y2="709.274" gradientUnits="userSpaceOnUse">
<stop stop-color="#34E89E"/>
<stop offset="1" stop-color="#0F3443"/>
</linearGradient>
<linearGradient id="paint4_linear_13_233" x1="733.334" y1="817.095" x2="733.334" y2="1178.54" gradientUnits="userSpaceOnUse">
<stop stop-color="#34E89E"/>
<stop offset="1" stop-color="#0F3443"/>
</linearGradient>
<linearGradient id="paint5_linear_13_233" x1="819.713" y1="1042.54" x2="819.713" y2="1098.9" gradientUnits="userSpaceOnUse">
<stop stop-color="#34E89E"/>
<stop offset="1" stop-color="#0F3443"/>
</linearGradient>
<linearGradient id="paint6_linear_13_233" x1="664.108" y1="1270.43" x2="664.108" y2="1329.24" gradientUnits="userSpaceOnUse">
<stop stop-color="#34E89E"/>
<stop offset="1" stop-color="#0F3443"/>
</linearGradient>
<linearGradient id="paint7_linear_13_233" x1="1001.05" y1="599.003" x2="1001.05" y2="655.364" gradientUnits="userSpaceOnUse">
<stop stop-color="#34E89E"/>
<stop offset="1" stop-color="#0F3443"/>
</linearGradient>
<linearGradient id="paint8_linear_13_233" x1="660.433" y1="971.474" x2="660.433" y2="1052.34" gradientUnits="userSpaceOnUse">
<stop stop-color="#34E89E"/>
<stop offset="1" stop-color="#0F3443"/>
</linearGradient>
<linearGradient id="paint9_linear_13_233" x1="1344.11" y1="704.373" x2="1344.11" y2="760.734" gradientUnits="userSpaceOnUse">
<stop stop-color="#34E89E"/>
<stop offset="1" stop-color="#0F3443"/>
</linearGradient>
<linearGradient id="paint10_linear_13_233" x1="1339.21" y1="1415.01" x2="1339.21" y2="1471.37" gradientUnits="userSpaceOnUse">
<stop stop-color="#34E89E"/>
<stop offset="1" stop-color="#0F3443"/>
</linearGradient>
<linearGradient id="paint11_linear_13_233" x1="731.496" y1="1380.7" x2="731.496" y2="1596.34" gradientUnits="userSpaceOnUse">
<stop stop-color="#34E89E"/>
<stop offset="1" stop-color="#0F3443"/>
</linearGradient>
<linearGradient id="paint12_linear_13_233" x1="742.523" y1="535.291" x2="742.523" y2="890.609" gradientUnits="userSpaceOnUse">
<stop stop-color="#34E89E"/>
<stop offset="1" stop-color="#0F3443"/>
</linearGradient>
<linearGradient id="paint13_linear_13_233" x1="747.424" y1="603.904" x2="747.424" y2="677.418" gradientUnits="userSpaceOnUse">
<stop stop-color="#34E89E"/>
<stop offset="1" stop-color="#0F3443"/>
</linearGradient>
<linearGradient id="paint14_linear_13_233" x1="845.443" y1="535.291" x2="845.443" y2="581.85" gradientUnits="userSpaceOnUse">
<stop stop-color="#34E89E"/>
<stop offset="1" stop-color="#0F3443"/>
</linearGradient>
<linearGradient id="paint15_linear_13_233" x1="1196.47" y1="532" x2="1196.47" y2="1089.1" gradientUnits="userSpaceOnUse">
<stop stop-color="#34E89E"/>
<stop offset="1" stop-color="#0F3443"/>
</linearGradient>
<linearGradient id="paint16_linear_13_233" x1="1494.87" y1="797.491" x2="1494.87" y2="1510.58" gradientUnits="userSpaceOnUse">
<stop stop-color="#34E89E"/>
<stop offset="1" stop-color="#0F3443"/>
</linearGradient>
<linearGradient id="paint17_linear_13_233" x1="1494.87" y1="797.491" x2="1494.87" y2="1510.58" gradientUnits="userSpaceOnUse">
<stop stop-color="#34E89E"/>
<stop offset="1" stop-color="#0F3443"/>
</linearGradient>
<linearGradient id="paint18_linear_13_233" x1="1383.32" y1="1123.4" x2="1383.32" y2="1397.86" gradientUnits="userSpaceOnUse">
<stop stop-color="#34E89E"/>
<stop offset="1" stop-color="#0F3443"/>
</linearGradient>
<linearGradient id="paint19_linear_13_233" x1="1092.94" y1="1388.05" x2="1092.94" y2="1500.78" gradientUnits="userSpaceOnUse">
<stop stop-color="#34E89E"/>
<stop offset="1" stop-color="#0F3443"/>
</linearGradient>
<linearGradient id="paint20_linear_13_233" x1="922.633" y1="1446.86" x2="922.633" y2="1547.33" gradientUnits="userSpaceOnUse">
<stop stop-color="#34E89E"/>
<stop offset="1" stop-color="#0F3443"/>
</linearGradient>
</defs>
</svg>
