<svg width="1.5rem" height="1.5rem" viewBox="0 0 1440 1440" fill="none" xmlns="http://www.w3.org/2000/svg">
<rect width="1.5rem" height="1.5rem" fill="#14171F"/>
<path d="M677.741 583.103L909.074 519.189C886.874 489.53 859.105 466.467 825.765 450.001C792.426 433.535 757.075 425.276 719.712 425.224L677.741 583.103ZM627.212 659.311L687.752 427.829C682.184 428.33 676.683 429.072 671.249 430.055C665.814 431.038 660.446 432.261 655.145 433.726C623.337 442.514 595.361 456.728 571.22 476.366C547.078 496.004 527.2 518.874 511.587 544.974L627.212 659.311ZM510.934 784.809L668.529 741.268L497.737 573.7C487.774 597.721 481.751 622.857 479.667 649.11C477.583 675.363 480.269 701.984 487.726 728.973C490.522 739.094 493.821 748.687 497.622 757.752C501.424 766.817 505.861 775.836 510.934 784.809ZM718.406 904.894L758.931 747.415L529.044 810.93C551.244 840.589 579.014 863.651 612.353 880.117C645.692 896.583 681.043 904.842 718.406 904.894ZM782.973 896.392C814.782 887.604 842.757 873.391 866.899 853.752C891.041 834.114 910.918 811.244 926.531 785.144L810.907 670.807L750.366 902.289C755.934 901.788 761.314 901.079 766.508 900.163C771.701 899.247 777.19 897.99 782.973 896.392ZM940.381 756.418C950.344 732.397 956.367 707.261 958.451 681.008C960.535 654.755 957.849 628.134 950.392 601.145C947.596 591.024 944.297 581.431 940.496 572.366C936.694 563.301 932.257 554.282 927.184 545.309L769.589 588.85L940.381 756.418ZM798.952 954.225C759.432 965.144 719.985 967.873 680.608 962.412C641.232 956.951 604.782 944.716 571.26 925.707C537.737 906.698 508.525 881.7 483.623 850.712C458.722 819.725 440.811 784.471 429.893 744.952C418.841 704.95 416.079 665.382 421.606 626.247C427.134 587.112 439.402 550.782 458.411 517.26C477.42 483.737 502.418 454.525 533.406 429.623C564.393 404.722 599.647 386.811 639.166 375.893C679.168 364.841 718.736 362.079 757.871 367.606C797.007 373.134 833.336 385.402 866.858 404.411C900.381 423.42 929.56 448.298 954.395 479.044C979.23 509.791 997.174 545.165 1008.23 585.166C1019.14 624.686 1021.87 664.134 1016.41 703.51C1010.95 742.886 998.716 779.336 979.707 812.858C960.698 846.381 935.82 875.56 905.074 900.395C874.327 925.23 838.953 943.174 798.952 954.225Z" fill="#E8EAED"/>
<path d="M500.763 1133.06H436.989V1029.98H450.63V1120.82H500.763V1133.06ZM540.185 1134.52C531.044 1134.52 523.7 1131.67 518.153 1125.97C512.606 1120.23 509.833 1112.24 509.833 1102C509.833 1091.85 512.509 1083.9 517.86 1078.16C523.251 1072.38 530.282 1069.48 538.954 1069.48C547.821 1069.48 554.892 1072.32 560.165 1077.98C565.478 1083.64 568.134 1091.65 568.134 1102V1104.64H521.317C521.786 1111.83 523.759 1117.16 527.235 1120.64C530.751 1124.11 535.067 1125.85 540.185 1125.85C544.052 1125.85 547.528 1124.88 550.614 1122.92C553.739 1120.93 555.38 1118.12 555.536 1114.48H566.962C566.103 1120.89 563.192 1125.83 558.231 1129.31C553.31 1132.79 547.294 1134.52 540.185 1134.52ZM556.474 1095.97C555.575 1089.99 553.563 1085.52 550.438 1082.55C547.313 1079.58 543.485 1078.1 538.954 1078.1C534.54 1078.1 530.751 1079.58 527.587 1082.55C524.423 1085.48 522.411 1089.95 521.552 1095.97H556.474ZM630.946 1128.25C630.946 1148.25 621.923 1158.25 603.876 1158.25C596.063 1158.25 589.892 1156.56 585.36 1153.16C580.868 1149.76 578.622 1145.19 578.622 1139.45H590.048C590.048 1146.24 594.618 1149.64 603.759 1149.64C608.915 1149.64 612.899 1148.22 615.712 1145.36C618.524 1142.55 619.931 1137 619.931 1128.72V1125.62C615.009 1131.56 609.091 1134.52 602.177 1134.52C594.052 1134.52 587.763 1131.63 583.31 1125.85C578.856 1120.07 576.63 1112.28 576.63 1102.47C576.63 1092.32 579.11 1084.29 584.071 1078.39C589.071 1072.45 595.341 1069.48 602.88 1069.48C609.599 1069.48 615.282 1071.56 619.931 1075.7V1070.89H630.946V1128.25ZM619.931 1115.19V1085.66C615.165 1080.62 609.716 1078.1 603.583 1078.1C598.856 1078.1 595.067 1080.15 592.216 1084.25C589.403 1088.31 587.997 1094.39 587.997 1102.47C587.997 1110.13 589.325 1115.95 591.981 1119.93C594.677 1123.88 598.388 1125.85 603.114 1125.85C609.286 1125.85 614.892 1122.3 619.931 1115.19ZM686.728 1116.71V1102.94H679.169C663.153 1102.94 655.146 1107.3 655.146 1116.01C655.146 1119.17 656.317 1121.61 658.661 1123.33C661.005 1125.01 664.169 1125.85 668.153 1125.85C671.786 1125.85 675.302 1125.03 678.7 1123.39C682.099 1121.75 684.774 1119.52 686.728 1116.71ZM686.728 1126.67C681.103 1131.91 673.856 1134.52 664.989 1134.52C658.817 1134.52 653.739 1132.86 649.755 1129.54C645.771 1126.18 643.778 1121.87 643.778 1116.59C643.778 1102.06 656.298 1094.8 681.337 1094.8H686.728C686.728 1090.34 686.493 1087.12 686.024 1085.13C685.556 1083.1 684.247 1081.42 682.099 1080.09C679.95 1078.76 676.532 1078.1 671.845 1078.1C662.001 1078.1 656.923 1081.61 656.61 1088.64H645.595C646.415 1075.87 655.36 1069.48 672.431 1069.48C680.399 1069.48 686.61 1071.07 691.063 1074.23C695.517 1077.39 697.743 1083.61 697.743 1092.86V1133.06H686.728V1126.67ZM729.067 1133.06H715.778V1029.98H729.067V1133.06ZM814.216 1133.06H750.442V1029.98H764.083V1120.82H814.216V1133.06ZM853.638 1134.52C844.497 1134.52 837.153 1131.67 831.606 1125.97C826.06 1120.23 823.286 1112.24 823.286 1102C823.286 1091.85 825.962 1083.9 831.313 1078.16C836.704 1072.38 843.735 1069.48 852.407 1069.48C861.274 1069.48 868.345 1072.32 873.618 1077.98C878.931 1083.64 881.587 1091.65 881.587 1102V1104.64H834.771C835.239 1111.83 837.212 1117.16 840.688 1120.64C844.204 1124.11 848.521 1125.85 853.638 1125.85C857.505 1125.85 860.981 1124.88 864.067 1122.92C867.192 1120.93 868.833 1118.12 868.989 1114.48H880.415C879.556 1120.89 876.646 1125.83 871.685 1129.31C866.763 1132.79 860.747 1134.52 853.638 1134.52ZM869.927 1095.97C869.028 1089.99 867.017 1085.52 863.892 1082.55C860.767 1079.58 856.938 1078.1 852.407 1078.1C847.993 1078.1 844.204 1079.58 841.04 1082.55C837.876 1085.48 835.864 1089.95 835.005 1095.97H869.927ZM905.083 1078.8C910.591 1072.59 916.782 1069.48 923.657 1069.48C937.681 1069.48 944.692 1077.12 944.692 1092.39V1133.06H933.618V1092.86C933.618 1087.79 932.7 1084.13 930.864 1081.91C929.067 1079.68 926.099 1078.57 921.958 1078.57C916.333 1078.57 910.708 1081.89 905.083 1088.53V1133.06H894.009V1070.89H905.083V1078.8ZM983.013 1134.52C966.021 1134.52 957.134 1127.84 956.353 1114.48H967.427C967.505 1122.06 972.661 1125.85 982.896 1125.85C987.466 1125.85 990.942 1124.91 993.325 1123.04C995.747 1121.13 996.958 1118.74 996.958 1115.89C996.958 1113.08 995.786 1111.11 993.442 1109.97C991.099 1108.8 986.255 1107.3 978.911 1105.46C971.606 1103.63 966.255 1101.57 962.856 1099.31C959.497 1097.04 957.817 1093.06 957.817 1087.36C957.817 1082.2 959.907 1077.94 964.087 1074.58C968.306 1071.18 973.931 1069.48 980.962 1069.48C997.251 1069.48 1005.57 1075.29 1005.92 1086.89H994.907C994.517 1081.03 990.122 1078.1 981.724 1078.1C978.013 1078.1 974.927 1078.8 972.466 1080.21C970.044 1081.61 968.833 1083.66 968.833 1086.36C968.833 1088.78 969.771 1090.54 971.646 1091.63C973.521 1092.69 978.208 1094.13 985.708 1095.97C993.247 1097.77 998.833 1099.88 1002.47 1102.3C1006.14 1104.72 1007.97 1108.9 1007.97 1114.84C1007.97 1120.5 1005.71 1125.21 1001.18 1128.96C996.685 1132.67 990.63 1134.52 983.013 1134.52Z" fill="white"/>
</svg>
