<svg width="1200" height="1200" viewBox="0 0 1200 1200" fill="none" xmlns="http://www.w3.org/2000/svg">
<rect width="1200" height="1200" fill="#281847"/>
<path fill-rule="evenodd" clip-rule="evenodd" d="M398.813 871.934C245.93 783.985 212.229 942.624 353.605 977.968C375.742 983.502 437.447 982.9 464.572 979.612C467.038 954.953 460.462 911.389 423.474 886.73C411.966 931.938 365.114 899.06 398.813 871.934ZM333.058 909.745C343.499 909.745 351.963 901.281 351.963 890.84C351.963 880.399 343.499 871.935 333.058 871.935C322.617 871.935 314.153 880.399 314.153 890.84C314.153 901.281 322.617 909.745 333.058 909.745Z" fill="white"/>
<path fill-rule="evenodd" clip-rule="evenodd" d="M801.218 871.844C954.101 783.895 987.801 942.533 846.426 977.877C824.288 983.412 762.583 982.81 735.458 979.522C732.992 954.863 739.568 911.299 776.556 886.64C788.064 931.848 834.916 898.969 801.218 871.844ZM866.972 909.655C856.531 909.655 848.067 901.191 848.067 890.75C848.067 880.309 856.531 871.845 866.972 871.845C877.413 871.845 885.877 880.309 885.877 890.75C885.877 901.191 877.413 909.655 866.972 909.655Z" fill="white"/>
<path d="M766.233 457.666C666.775 257.929 502.383 308.069 432.516 457.666C374.978 530.82 210.586 628.634 304.29 813.576C356.074 807 476.08 847.276 491.698 932.76V982.078H707.873H709.517V931.938C709.517 885.908 795.001 807.822 896.103 813.576C999.67 623.702 777.74 489.722 766.233 457.666Z" fill="#846AC1"/>
<ellipse cx="448.955" cy="614.661" rx="52.6056" ry="51.7836" fill="#2A1946"/>
<circle cx="435.805" cy="599.043" r="14.7953" fill="white"/>
<ellipse cx="751.437" cy="614.661" rx="52.6056" ry="51.7836" fill="#2A1946"/>
<circle cx="764.588" cy="599.043" r="14.7953" fill="white"/>
<path d="M413.611 727.269C619.102 703.432 559.92 424.787 521.288 349.989C589.511 308.069 649.514 330.262 676.639 349.989C598.553 584.248 656.536 711.989 782.672 725.625C843.497 732.201 885.417 779.875 896.103 814.397C788.426 810.288 711.983 890.018 708.696 931.938C625.677 962.351 527.042 948.377 490.876 931.938C471.148 843.166 347.032 807.822 304.29 814.397C320.729 751.271 383.198 730.797 413.611 727.269Z" fill="white"/>
<path d="M515.533 799.603C541.836 835.769 576.358 811.932 580.468 794.671C504.027 742.065 531.152 703.461 553.345 692.747C577.181 681.24 628.965 681.24 649.514 692.747C688.968 720.365 665.953 755.216 649.514 770.012L619.923 796.315C652.802 841.522 672.529 808.644 688.146 798.78C711.456 784.058 715.47 816.864 707.051 825.906C662.666 873.579 616.635 846.455 600.195 825.906C572.25 870.292 499.917 852.208 489.23 818.508C481.092 792.843 510.153 792.205 515.533 799.603Z" fill="#2A1946"/>
<path d="M555.811 719.05C555.811 712.474 562.386 712.474 562.386 712.474H636.363C636.363 712.474 644.582 712.474 644.582 719.05C644.582 725.626 636.363 725.626 636.363 725.626H562.386C562.386 725.626 555.811 725.626 555.811 719.05Z" fill="#FFFDFD"/>
<path d="M419.365 414.924L266.479 265.326L346.21 227.516L481.012 344.235C445.667 373.003 436.626 389.443 419.365 414.924Z" fill="#846AC1"/>
<path d="M239.355 248.887C324.839 171.623 440.735 261.217 502.383 325.33L481.012 344.235C385.664 257.929 319.085 249.284 258.26 270.258C234.423 278.478 231.135 256.316 239.355 248.887Z" fill="#BB9FF3"/>
<path d="M781.85 415.22L934.735 265.623L855.005 227.813L720.203 344.532C755.547 373.3 764.589 389.74 781.85 415.22Z" fill="#846AC1"/>
<path d="M961.86 249.184C876.376 171.919 760.479 261.513 698.832 325.626L720.203 344.532C815.551 258.225 882.13 249.58 942.955 270.555C966.792 278.775 970.08 256.613 961.86 249.184Z" fill="#BB9FF3"/>
<path d="M402.924 442.047L256.615 299.026C131.677 403.415 212.23 548.903 294.425 559.588L404.568 443.691L402.924 442.047Z" fill="white"/>
<path d="M797.468 441.226L943.777 298.205C1068.72 402.594 988.163 548.081 905.967 558.767L795.824 442.87L797.468 441.226Z" fill="white"/>
</svg>
